<?xml version="1.0" encoding="utf-8"?>
<!-- Generator: Adobe Illustrator 24.0.0, SVG Export Plug-In . SVG Version: 6.00 Build 0)  -->
<svg version="1.1" id="Layer_1" xmlns="http://www.w3.org/2000/svg" xmlns:xlink="http://www.w3.org/1999/xlink" x="0px" y="0px"
	 viewBox="0 0 15 15" style="enable-background:new 0 0 15 15;" xml:space="preserve">
<style type="text/css">
	.st0{fill-rule:evenodd;clip-rule:evenodd;fill:#545454;}
</style>
<path class="st0" d="M6.3,0.6h7c0.8,0,1.4,0.6,1.4,1.4v7c0,0.8-0.6,1.4-1.4,1.4h-2.8v2.8c0,0.8-0.6,1.4-1.4,1.4h-7
	c-0.8,0-1.4-0.6-1.4-1.4v-7c0-0.8,0.6-1.4,1.4-1.4h2.8V2C4.9,1.2,5.5,0.6,6.3,0.6z M4.9,6.2H2.1v7h7v-2.8H6.3
	c-0.8,0-1.4-0.6-1.4-1.4V6.2z M6.3,2v7h7V2H6.3z"/>
</svg>
