<?xml version="1.0" encoding="utf-8"?>
<!-- Generator: Adobe Illustrator 24.0.0, SVG Export Plug-In . SVG Version: 6.00 Build 0)  -->
<svg version="1.1" id="Layer_1" xmlns="http://www.w3.org/2000/svg" xmlns:xlink="http://www.w3.org/1999/xlink" x="0px" y="0px"
	 viewBox="0 0 17 16" style="enable-background:new 0 0 17 16;" xml:space="preserve">
<style type="text/css">
	.st0{fill-rule:evenodd;clip-rule:evenodd;fill:#5B5B5B;}
</style>
<path class="st0" d="M15.8,1.7v7.9c0,0.9-0.7,1.6-1.6,1.6H9.5v1.1l3.6,2.1l-0.8,1.4l-2.8-1.7v1.8H7.9v-1.8l-2.8,1.7l-0.8-1.4
	l3.6-2.1v-1.1H3.2c-0.9,0-1.6-0.7-1.6-1.6V1.7H0.8V0.1h15.8v1.6H15.8z M3.2,1.7v7.9h11.1V1.7H3.2z M5.5,8h1.6V4.8H5.5V8z M9.5,8H7.9
	V3.3h1.6V8z M10.3,8h1.6V5.6h-1.6V8z"/>
</svg>
