<?xml version="1.0" encoding="utf-8"?>
<!-- Generator: Adobe Illustrator 24.0.0, SVG Export Plug-In . SVG Version: 6.00 Build 0)  -->
<svg version="1.1" id="Layer_1" xmlns="http://www.w3.org/2000/svg" xmlns:xlink="http://www.w3.org/1999/xlink" x="0px" y="0px"
	 viewBox="0 0 15 14" style="enable-background:new 0 0 15 14;" xml:space="preserve">
<style type="text/css">
	.st0{fill-rule:evenodd;clip-rule:evenodd;fill:#3D3D3D;}
</style>
<path class="st0" d="M11.8,8.4c-0.8,0-1.6,0.4-2.1,0.9L6.3,7.6c0-0.2,0.1-0.4,0.1-0.6s0-0.4-0.1-0.6l3.5-1.7
	c0.5,0.6,1.2,0.9,2.1,0.9c1.5,0,2.7-1.2,2.7-2.7s-1.2-2.7-2.7-2.7c-1.6,0-2.8,1.2-2.8,2.7c0,0.2,0,0.4,0.1,0.6L5.7,5.2
	C5.2,4.6,4.4,4.3,3.6,4.3C2.1,4.3,0.9,5.5,0.9,7s1.2,2.7,2.7,2.7c0.8,0,1.6-0.4,2.1-0.9l3.5,1.7c0,0.2-0.1,0.4-0.1,0.6
	c0,1.5,1.2,2.7,2.7,2.7s2.7-1.2,2.7-2.7S13.3,8.4,11.8,8.4z M11.8,1.5c0.8,0,1.4,0.6,1.4,1.4c0,0.8-0.6,1.4-1.4,1.4
	c-0.7,0-1.4-0.6-1.4-1.4C10.4,2.1,11,1.5,11.8,1.5z M3.6,8.4C2.9,8.4,2.2,7.8,2.2,7s0.6-1.4,1.4-1.4C4.4,5.6,5,6.2,5,7
	S4.4,8.4,3.6,8.4z M11.8,12.5c-0.8,0-1.4-0.6-1.4-1.4c0-0.8,0.6-1.4,1.4-1.4s1.4,0.6,1.4,1.4C13.2,11.9,12.6,12.5,11.8,12.5z"/>
</svg>
