<?xml version="1.0" encoding="utf-8"?>
<!-- Generator: Adobe Illustrator 24.0.0, SVG Export Plug-In . SVG Version: 6.00 Build 0)  -->
<svg version="1.1" id="Layer_1" xmlns="http://www.w3.org/2000/svg" xmlns:xlink="http://www.w3.org/1999/xlink" x="0px" y="0px"
	 viewBox="0 0 22 22" style="enable-background:new 0 0 22 22;" xml:space="preserve">
<style type="text/css">
	.st0{fill-rule:evenodd;clip-rule:evenodd;fill:#777777;}
</style>
<path class="st0" d="M21,12.4V9.5l-2.4-1.4l-0.3-0.8L19,4.7l-2.1-2.1l-2.7,0.7L13.4,3L12,0.6H9.2L7.8,3.1L7.1,3.4L4.4,2.6L2.3,4.7
	L3,7.4L2.7,8.2L0.3,9.5v2.9l2.4,1.4L3,14.6l-0.7,2.7l2.1,2.1l2.7-0.7L7.9,19l1.4,2.4h2.9l1.4-2.4l0.8-0.3l2.5,0.7l2.1-2.1l-0.7-2.7
	l0.3-0.8L21,12.4z M17.1,12.5l-0.8,2l0.6,2.2l-0.5,0.5l-2.2-0.6l-2,0.8l-1.1,2h-0.8l-1.1-2l-2-0.8L5,17.2l-0.5-0.5L5,14.5l-0.8-2
	l-2-1.1v-0.8l2-1.1l0.8-2L4.4,5.3L5,4.7l2.2,0.6l2-0.8l1.1-2h0.8l1.1,2l2,0.8l2.2-0.6l0.5,0.5l-0.6,2.2l0.8,2l2,1.1v0.8L17.1,12.5z
	 M10.7,7.2c-2.1,0-3.8,1.7-3.8,3.8s1.7,3.8,3.8,3.8c2,0,3.7-1.7,3.8-3.8C14.5,8.9,12.8,7.2,10.7,7.2z M10.6,12.9
	c-1,0-1.9-0.8-1.9-1.9c0-1,0.8-1.9,1.9-1.9c1.1,0,1.9,0.9,1.9,1.9S11.7,12.9,10.6,12.9z"/>
</svg>
