<svg width="89" height="66" viewBox="0 0 89 66" fill="none" xmlns="http://www.w3.org/2000/svg">
<path fill-rule="evenodd" clip-rule="evenodd" d="M85.8048 39.3543C84.0509 37.0157 81.7489 35.8464 78.8988 35.8464C75.0255 35.8464 72.2485 36.6624 70.5676 39.4029V22.1987C68.0098 22.7103 64.8308 22.9661 61.0307 22.9661C59.8979 22.9661 58.7652 22.9113 57.6324 22.8016V23.9527C58.7652 23.9527 59.5508 24.3363 59.9893 25.1037C60.4643 25.871 60.7018 27.0951 60.7018 28.7759V46.5281C60.3021 47.5317 59.9136 48.5071 59.6942 49.2613L56.3564 57.509L49.9729 37.0741C48.5844 37.1472 47.5247 37.1838 46.7939 37.1838C46.2093 37.1838 45.3323 37.1472 44.163 37.0741H44.1082L39.3946 55.4355L34.8453 40.2531C34.7723 39.8877 34.7357 39.6502 34.7357 39.5406C34.7357 38.9925 34.9732 38.6271 35.4482 38.4444C35.9598 38.2617 36.782 38.1703 37.9147 38.1703V37.0193C34.9915 37.2386 32.6164 37.3482 30.7894 37.3482C27.1719 37.3482 23.9199 37.2386 21.0332 37.0193V38.1703C21.6178 38.1703 22.1842 38.3713 22.7323 38.7733C23.2804 39.1387 23.7737 39.9608 24.2122 41.2397L32.6529 65.4658C33.2376 65.3927 34.1328 65.3561 35.3386 65.3561C36.5079 65.3561 37.3849 65.3927 37.9695 65.4658L42.9572 46.5015L49.4796 65.4658C50.0643 65.3927 50.9595 65.3561 52.1653 65.3561C53.3346 65.3561 54.2116 65.3927 54.7962 65.4658L60.7018 50.3911V62.3745C60.7018 63.6169 60.5739 64.6217 60.3181 65.3891L61.0855 65.9372C61.597 65.4621 62.3279 65.0785 63.2779 64.7861C64.2279 64.4938 65.2511 64.3477 66.3473 64.3477C67.8089 64.3477 69.2156 64.6217 70.5676 65.1698C71.2253 65.4621 71.9379 65.6448 72.7052 65.7179C73.5091 65.791 74.4957 65.8275 75.665 65.8275C79.5017 65.8275 82.5893 64.5852 84.9279 62.1005C87.2664 59.5792 88.4357 55.4136 88.4357 49.6038C88.4357 45.1093 87.5587 41.6928 85.8048 39.3543ZM78.1862 50.8644C78.1862 60.109 76.5054 64.7313 73.1437 64.7313C72.2667 64.7313 71.408 64.5121 70.5676 64.0736V42.5602C70.5676 41.4274 70.9513 40.6749 71.7186 39.9441C72.5225 39.1768 73.4543 38.6966 74.5139 38.6966C75.6467 38.6966 76.5419 39.6101 77.1996 41.4371C77.8574 43.2275 78.1862 46.37 78.1862 50.8644Z" fill="#0D1C19"/>
<path fill-rule="evenodd" clip-rule="evenodd" d="M85.8048 39.3543C84.0509 37.0157 81.7489 35.8464 78.8988 35.8464C75.0255 35.8464 72.2485 36.6624 70.5676 39.4029V22.1987C68.0098 22.7103 64.8308 22.9661 61.0307 22.9661C59.8979 22.9661 58.7652 22.9113 57.6324 22.8016V23.9527C58.7652 23.9527 59.5508 24.3363 59.9893 25.1037C60.4643 25.871 60.7018 27.0951 60.7018 28.7759V46.5281C60.3021 47.5317 59.9136 48.5071 59.6942 49.2613L56.3564 57.509L49.9729 37.0741C48.5844 37.1472 47.5247 37.1838 46.7939 37.1838C46.2093 37.1838 45.3323 37.1472 44.163 37.0741H44.1082L39.3946 55.4355L34.8453 40.2531C34.7723 39.8877 34.7357 39.6502 34.7357 39.5406C34.7357 38.9925 34.9732 38.6271 35.4482 38.4444C35.9598 38.2617 36.782 38.1703 37.9147 38.1703V37.0193C34.9915 37.2386 32.6164 37.3482 30.7894 37.3482C27.1719 37.3482 23.9199 37.2386 21.0332 37.0193V38.1703C21.6178 38.1703 22.1842 38.3713 22.7323 38.7733C23.2804 39.1387 23.7737 39.9608 24.2122 41.2397L32.6529 65.4658C33.2376 65.3927 34.1328 65.3561 35.3386 65.3561C36.5079 65.3561 37.3849 65.3927 37.9695 65.4658L42.9572 46.5015L49.4796 65.4658C50.0643 65.3927 50.9595 65.3561 52.1653 65.3561C53.3346 65.3561 54.2116 65.3927 54.7962 65.4658L60.7018 50.3911V62.3745C60.7018 63.6169 60.5739 64.6217 60.3181 65.3891L61.0855 65.9372C61.597 65.4621 62.3279 65.0785 63.2779 64.7861C64.2279 64.4938 65.2511 64.3477 66.3473 64.3477C67.8089 64.3477 69.2156 64.6217 70.5676 65.1698C71.2253 65.4621 71.9379 65.6448 72.7052 65.7179C73.5091 65.791 74.4957 65.8275 75.665 65.8275C79.5017 65.8275 82.5893 64.5852 84.9279 62.1005C87.2664 59.5792 88.4357 55.4136 88.4357 49.6038C88.4357 45.1093 87.5587 41.6928 85.8048 39.3543ZM78.1862 50.8644C78.1862 60.109 76.5054 64.7313 73.1437 64.7313C72.2667 64.7313 71.408 64.5121 70.5676 64.0736V42.5602C70.5676 41.4274 70.9513 40.6749 71.7186 39.9441C72.5225 39.1768 73.4543 38.6966 74.5139 38.6966C75.6467 38.6966 76.5419 39.6101 77.1996 41.4371C77.8574 43.2275 78.1862 46.37 78.1862 50.8644Z" fill="url(#paint0_linear)" fill-opacity="0.5" style="mix-blend-mode:screen"/>
<path fill-rule="evenodd" clip-rule="evenodd" d="M40.954 8.33618H10.4173C4.90406 8.33618 0.422989 12.8219 0.422989 18.3408C0.422989 23.8598 4.90406 28.3455 10.4173 28.3455H40.954C41.8099 28.3455 42.6407 28.2447 43.4211 28.0431L47.7511 32.3776V25.6742C49.7147 23.8346 50.9482 21.2389 50.9482 18.3408C50.9482 12.7967 46.4672 8.33618 40.954 8.33618ZM33.4774 18.6432C33.4774 20.035 34.6045 21.1632 35.9948 21.1632C37.3852 21.1632 38.5123 20.035 38.5123 18.6432C38.5123 17.2514 37.3852 16.1231 35.9948 16.1231C34.6045 16.1231 33.4774 17.2514 33.4774 18.6432ZM25.6985 21.1632C24.3081 21.1632 23.181 20.035 23.181 18.6432C23.181 17.2514 24.3081 16.1231 25.6985 16.1231C27.0888 16.1231 28.2159 17.2514 28.2159 18.6432C28.2159 20.035 27.0888 21.1632 25.6985 21.1632ZM12.8595 18.6432C12.8595 20.035 13.9866 21.1632 15.3769 21.1632C16.7673 21.1632 17.8944 20.035 17.8944 18.6432C17.8944 17.2514 16.7673 16.1231 15.3769 16.1231C13.9866 16.1231 12.8595 17.2514 12.8595 18.6432Z" fill="#99E3C4"/>
<path fill-rule="evenodd" clip-rule="evenodd" d="M40.954 8.33618H10.4173C4.90406 8.33618 0.422989 12.8219 0.422989 18.3408C0.422989 23.8598 4.90406 28.3455 10.4173 28.3455H40.954C41.8099 28.3455 42.6407 28.2447 43.4211 28.0431L47.7511 32.3776V25.6742C49.7147 23.8346 50.9482 21.2389 50.9482 18.3408C50.9482 12.7967 46.4672 8.33618 40.954 8.33618ZM33.4774 18.6432C33.4774 20.035 34.6045 21.1632 35.9948 21.1632C37.3852 21.1632 38.5123 20.035 38.5123 18.6432C38.5123 17.2514 37.3852 16.1231 35.9948 16.1231C34.6045 16.1231 33.4774 17.2514 33.4774 18.6432ZM25.6985 21.1632C24.3081 21.1632 23.181 20.035 23.181 18.6432C23.181 17.2514 24.3081 16.1231 25.6985 16.1231C27.0888 16.1231 28.2159 17.2514 28.2159 18.6432C28.2159 20.035 27.0888 21.1632 25.6985 21.1632ZM12.8595 18.6432C12.8595 20.035 13.9866 21.1632 15.3769 21.1632C16.7673 21.1632 17.8944 20.035 17.8944 18.6432C17.8944 17.2514 16.7673 16.1231 15.3769 16.1231C13.9866 16.1231 12.8595 17.2514 12.8595 18.6432Z" fill="url(#paint1_linear)" style="mix-blend-mode:multiply"/>
<defs>
<linearGradient id="paint0_linear" x1="54.7345" y1="9.6" x2="54.7345" y2="65.9372" gradientUnits="userSpaceOnUse">
<stop stop-color="#99E3C4"/>
<stop offset="0.71365" stop-color="#99E3C4" stop-opacity="0"/>
</linearGradient>
<linearGradient id="paint1_linear" x1="25.6856" y1="8.33618" x2="25.6856" y2="32.3776" gradientUnits="userSpaceOnUse">
<stop offset="0.0001" stop-color="#99E3C4" stop-opacity="0"/>
<stop offset="0.302083" stop-color="#99E3C4" stop-opacity="0.01"/>
<stop offset="1" stop-color="#99E3C4"/>
</linearGradient>
</defs>
</svg>
