<svg width="15" height="14" viewBox="0 0 15 14" fill="none" xmlns="http://www.w3.org/2000/svg">
<path fill-rule="evenodd" clip-rule="evenodd" d="M11.7174 1.18767C11.345 0.812348 10.8351 0.599976 10.3032 0.599976C9.77192 0.599976 9.26259 0.811869 8.88808 1.18865L2.08934 7.9873C1.48182 8.52259 1.08356 9.31914 1.01436 10.1758L1.01172 12.7876V13.6H4.37059C5.29208 13.5368 6.09644 13.1346 6.66387 12.48L13.4241 5.72272C13.7992 5.34766 14.0099 4.83898 14.0099 4.30856C14.0099 3.77815 13.7992 3.26946 13.4241 2.8944L11.7174 1.18767ZM4.31322 11.9772C4.74722 11.9465 5.1512 11.7445 5.47559 11.3735L10.4002 6.4489L8.16264 4.21123L3.20198 9.17027C2.87285 9.46137 2.66923 9.86863 2.63648 10.2412V11.9757L4.31322 11.9772ZM9.31171 3.06254L11.549 5.30002L12.2752 4.57384C12.3456 4.50348 12.3851 4.40806 12.3851 4.30856C12.3851 4.20906 12.3456 4.11364 12.2752 4.04329L10.5662 2.33429C10.4967 2.26418 10.402 2.22474 10.3032 2.22474C10.2044 2.22474 10.1098 2.26418 10.0402 2.33429L9.31171 3.06254Z" fill="#B4BEC9" stroke="#B4BEC9" stroke-width="0.15"/>
</svg>
