<?xml version="1.0" encoding="utf-8"?>
<!-- Generator: Adobe Illustrator 24.0.0, SVG Export Plug-In . SVG Version: 6.00 Build 0)  -->
<svg version="1.1" id="Layer_1" xmlns="http://www.w3.org/2000/svg" xmlns:xlink="http://www.w3.org/1999/xlink" x="0px" y="0px"
	 viewBox="0 0 15 14" style="enable-background:new 0 0 15 14;" xml:space="preserve">
<style type="text/css">
	.st0{fill:#B4BEC9;}
</style>
<path class="st0" d="M13.5,2.8l-1.7-1.7c-0.4-0.4-0.9-0.6-1.5-0.6c-0.6,0-1.1,0.2-1.5,0.6L2,7.9c-0.6,0.6-1,1.4-1.1,2.2l0,3.5H1h3.4
	c0.9-0.1,1.8-0.5,2.3-1.1l6.8-6.8c0.4-0.4,0.6-0.9,0.6-1.5S13.9,3.2,13.5,2.8z M5.4,11.3c-0.3,0.3-0.7,0.5-1.1,0.6l-1.6,0l0-1.7
	c0-0.4,0.2-0.8,0.5-1l4.9-4.9l2.1,2.1L5.4,11.3z M12.3,4.6l-0.7,0.7L9.3,3.1L10,2.3c0.1-0.1,0.2-0.1,0.3-0.1c0.1,0,0.2,0,0.3,0.1
	L12.3,4c0.1,0.1,0.1,0.2,0.1,0.3C12.4,4.4,12.3,4.5,12.3,4.6z"/>
</svg>
