<?xml version="1.0" encoding="utf-8"?>
<!-- Generator: Adobe Illustrator 24.0.0, SVG Export Plug-In . SVG Version: 6.00 Build 0)  -->
<svg version="1.1" id="Layer_1" xmlns="http://www.w3.org/2000/svg" xmlns:xlink="http://www.w3.org/1999/xlink" x="0px" y="0px"
	 viewBox="0 0 14 14" style="enable-background:new 0 0 14 14;" xml:space="preserve">
<style type="text/css">
	.st0{fill-rule:evenodd;clip-rule:evenodd;fill:#B4BEC9;}
</style>
<path class="st0" d="M6.8,13.5c-3.6,0-6.5-2.9-6.5-6.5c0-3.6,2.9-6.5,6.5-6.5c3.6,0,6.5,2.9,6.5,6.5C13.3,10.6,10.3,13.5,6.8,13.5z
	 M6.8,11.8c2.7,0,4.9-2.2,4.9-4.9S9.4,2.1,6.8,2.1S1.9,4.3,1.9,7S4.1,11.8,6.8,11.8z M10,6.2H7.6V3.7H5.9v2.4H3.5v1.6h2.4v2.4h1.6
	V7.8H10V6.2z"/>
</svg>
