<?xml version="1.0" encoding="utf-8"?>
<!-- Generator: Adobe Illustrator 24.0.0, SVG Export Plug-In . SVG Version: 6.00 Build 0)  -->
<svg version="1.1" id="Layer_1" xmlns="http://www.w3.org/2000/svg" xmlns:xlink="http://www.w3.org/1999/xlink" x="0px" y="0px"
	 viewBox="0 0 13 18" style="enable-background:new 0 0 13 18;" xml:space="preserve">
<style type="text/css">
	.st0{fill:#7C7C7C;}
</style>
<path class="st0" d="M5.2,11.4c0-0.7,0.1-1.4,0.3-1.9C5.7,9,6,8.6,6.3,8.3C6.6,8,7,7.6,7.5,7.3c0.5-0.4,0.9-0.7,1.1-1
	C8.9,5.9,9,5.6,9,5.1c0-1.2-0.8-1.8-2.3-1.8C5.8,3.3,5.2,3.5,4.8,4C4.5,4.5,4.3,5,4.3,5.5l0,0.6H1C0.9,5.9,0.9,5.6,0.9,5.3
	c0-0.9,0.2-1.7,0.7-2.5c0.5-0.8,1.1-1.3,2-1.8c0.9-0.4,2-0.6,3.3-0.6c1.8,0,3.2,0.4,4.2,1.1c1,0.7,1.5,1.8,1.5,3.2
	c0,0.7-0.1,1.3-0.4,1.9c-0.2,0.5-0.5,0.9-0.8,1.3c-0.3,0.3-0.8,0.7-1.3,1.1c-0.7,0.5-1.1,1-1.5,1.4c-0.3,0.4-0.5,0.9-0.5,1.5v0.7h-3
	V11.4z M5,13.9h3.3v3.3H5V13.9z"/>
</svg>
