<?xml version="1.0" encoding="utf-8"?>
<!-- Generator: Adobe Illustrator 24.0.0, SVG Export Plug-In . SVG Version: 6.00 Build 0)  -->
<svg version="1.1" id="Layer_1" xmlns="http://www.w3.org/2000/svg" xmlns:xlink="http://www.w3.org/1999/xlink" x="0px" y="0px"
	 viewBox="0 0 18 18" style="enable-background:new 0 0 18 18;" xml:space="preserve">
<style type="text/css">
	.st0{fill-rule:evenodd;clip-rule:evenodd;fill:#4F4F4F;}
</style>
<path class="st0" d="M8.7,0.6C4,0.6,0.2,4.4,0.2,9.1c0,4.7,3.8,8.5,8.5,8.5s8.5-3.8,8.5-8.5C17.2,4.4,13.4,0.6,8.7,0.6z M15.6,8.2
	c-0.4,0.4-1.5,0.9-3,1.2c0-0.1,0-0.2,0-0.4c0-2.6-0.5-4.9-1.3-6.5C13.6,3.5,15.3,5.7,15.6,8.2z M1.8,10.1c0.8,0.5,1.9,0.8,3.1,1
	c0.2,1.8,0.6,3.3,1.2,4.4C3.8,14.6,2.2,12.6,1.8,10.1z M4.9,9.1c0,0.1,0,0.3,0,0.4C4.4,9.4,4,9.3,3.6,9.2C2.7,8.9,2,8.5,1.8,8.2
	c0.3-2.5,2-4.6,4.4-5.6C5.4,4.2,4.9,6.5,4.9,9.1z M8.7,16c-0.9,0-1.8-1.9-2.2-4.7c0.7,0.1,1.4,0.1,2.2,0.1c0.7,0,1.5,0,2.2-0.1
	C10.5,14.1,9.6,16,8.7,16z M11,9.7c-0.7,0.1-1.5,0.2-2.3,0.2s-1.6,0-2.3-0.1c0-0.2,0-0.4,0-0.7c0-3.9,1.2-7,2.3-7
	c1.1,0,2.3,3.1,2.3,7C11,9.3,11,9.5,11,9.7z M11.3,15.5c0.6-1.2,1-2.7,1.2-4.5c1.2-0.2,2.3-0.6,3.1-1C15.3,12.5,13.6,14.6,11.3,15.5
	z"/>
</svg>
