<?xml version="1.0" encoding="utf-8"?>
<!-- Generator: Adobe Illustrator 24.0.0, SVG Export Plug-In . SVG Version: 6.00 Build 0)  -->
<svg version="1.1" id="Layer_1" xmlns="http://www.w3.org/2000/svg" xmlns:xlink="http://www.w3.org/1999/xlink" x="0px" y="0px"
	 viewBox="0 0 17 18" style="enable-background:new 0 0 17 18;" xml:space="preserve">
<style type="text/css">
	.st0{fill-rule:evenodd;clip-rule:evenodd;fill:#444444;}
</style>
<path class="st0" d="M9.7,1.2l6.6,3.7c0.9,0.5,0.9,1.6,0,2.1l-1.1,0.6l1.1,0.6c0.9,0.5,0.9,1.6,0,2.1l-1.1,0.6l1.1,0.6
	c0.9,0.5,0.9,1.6,0,2.1l-6.6,3.7c-0.6,0.3-1.4,0.3-1.9,0l-6.6-3.7c-0.9-0.5-0.9-1.6,0-2.1l1.1-0.6l-1.1-0.6c-0.9-0.5-0.9-1.6,0-2.1
	l1.1-0.6L1.1,6.9c-0.9-0.5-0.9-1.6,0-2.1l6.6-3.7C8.3,0.9,9.1,0.9,9.7,1.2z M9.7,10.6l3.8-2.1l1.3,0.7l-1.3,0.7l-1.7,0.9l-2.9,1.6
	c-0.1,0-0.2,0-0.3,0l-2.9-1.6L3.9,9.9L2.7,9.2l1.3-0.7l3.8,2.1C8.3,10.9,9.1,10.9,9.7,10.6z M3.9,11.8l-1.3,0.7l5.9,3.3
	c0.1,0,0.2,0,0.3,0l5.9-3.3l-1.3-0.7l-3.8,2.1c-0.6,0.3-1.4,0.3-1.9,0L3.9,11.8z M8.6,2.6c0.1,0,0.2,0,0.3,0l5.9,3.3L8.9,9.2
	c-0.1,0-0.2,0-0.3,0L2.7,5.9L8.6,2.6z"/>
</svg>
