<svg width="89" height="66" viewBox="0 0 89 66" fill="none" xmlns="http://www.w3.org/2000/svg">
<path fill-rule="evenodd" clip-rule="evenodd" d="M85.805 39.3543C84.0511 37.0157 81.7491 35.8464 78.899 35.8464C75.0257 35.8464 72.2487 36.6624 70.5679 39.4029V22.1987C68.0101 22.7103 64.8311 22.9661 61.0309 22.9661C59.8982 22.9661 58.7654 22.9113 57.6327 22.8016V23.9527C58.7654 23.9527 59.551 24.3363 59.9895 25.1037C60.4645 25.871 60.7021 27.0951 60.7021 28.7759V46.5281C60.3023 47.5317 59.9138 48.5071 59.6944 49.2613L56.3567 57.509L49.9732 37.0741C48.5846 37.1472 47.525 37.1838 46.7942 37.1838C46.2095 37.1838 45.3326 37.1472 44.1633 37.0741H44.1085L39.3948 55.4355L34.8456 40.2531C34.7725 39.8877 34.736 39.6502 34.736 39.5406C34.736 38.9925 34.9735 38.6271 35.4485 38.4444C35.9601 38.2617 36.7822 38.1703 37.9149 38.1703V37.0193C34.9917 37.2386 32.6166 37.3482 30.7896 37.3482C27.1722 37.3482 23.9201 37.2386 21.0334 37.0193V38.1703C21.6181 38.1703 22.1845 38.3713 22.7326 38.7733C23.2807 39.1387 23.7739 39.9608 24.2124 41.2397L32.6532 65.4658C33.2378 65.3927 34.133 65.3561 35.3389 65.3561C36.5082 65.3561 37.3851 65.3927 37.9697 65.4658L42.9575 46.5015L49.4799 65.4658C50.0645 65.3927 50.9597 65.3561 52.1656 65.3561C53.3348 65.3561 54.2118 65.3927 54.7964 65.4658L60.7021 50.3911V62.3745C60.7021 63.6169 60.5742 64.6217 60.3184 65.3891L61.0857 65.9372C61.5973 65.4621 62.3281 65.0785 63.2781 64.7861C64.2282 64.4938 65.2513 64.3477 66.3475 64.3477C67.8091 64.3477 69.2159 64.6217 70.5679 65.1698C71.2256 65.4621 71.9381 65.6448 72.7055 65.7179C73.5093 65.791 74.4959 65.8275 75.6652 65.8275C79.5019 65.8275 82.5895 64.5852 84.9281 62.1005C87.2667 59.5792 88.4359 55.4136 88.4359 49.6038C88.4359 45.1093 87.559 41.6928 85.805 39.3543ZM78.1865 50.8644C78.1865 60.109 76.5056 64.7313 73.1439 64.7313C72.267 64.7313 71.4083 64.5121 70.5679 64.0736V42.5602C70.5679 41.4274 70.9515 40.6749 71.7189 39.9441C72.5228 39.1768 73.4545 38.6966 74.5142 38.6966C75.6469 38.6966 76.5422 39.6101 77.1999 41.4371C77.8576 43.2275 78.1865 46.37 78.1865 50.8644Z" fill="#0D1C19"/>
<path fill-rule="evenodd" clip-rule="evenodd" d="M85.805 39.3543C84.0511 37.0157 81.7491 35.8464 78.899 35.8464C75.0257 35.8464 72.2487 36.6624 70.5679 39.4029V22.1987C68.0101 22.7103 64.8311 22.9661 61.0309 22.9661C59.8982 22.9661 58.7654 22.9113 57.6327 22.8016V23.9527C58.7654 23.9527 59.551 24.3363 59.9895 25.1037C60.4645 25.871 60.7021 27.0951 60.7021 28.7759V46.5281C60.3023 47.5317 59.9138 48.5071 59.6944 49.2613L56.3567 57.509L49.9732 37.0741C48.5846 37.1472 47.525 37.1838 46.7942 37.1838C46.2095 37.1838 45.3326 37.1472 44.1633 37.0741H44.1085L39.3948 55.4355L34.8456 40.2531C34.7725 39.8877 34.736 39.6502 34.736 39.5406C34.736 38.9925 34.9735 38.6271 35.4485 38.4444C35.9601 38.2617 36.7822 38.1703 37.9149 38.1703V37.0193C34.9917 37.2386 32.6166 37.3482 30.7896 37.3482C27.1722 37.3482 23.9201 37.2386 21.0334 37.0193V38.1703C21.6181 38.1703 22.1845 38.3713 22.7326 38.7733C23.2807 39.1387 23.7739 39.9608 24.2124 41.2397L32.6532 65.4658C33.2378 65.3927 34.133 65.3561 35.3389 65.3561C36.5082 65.3561 37.3851 65.3927 37.9697 65.4658L42.9575 46.5015L49.4799 65.4658C50.0645 65.3927 50.9597 65.3561 52.1656 65.3561C53.3348 65.3561 54.2118 65.3927 54.7964 65.4658L60.7021 50.3911V62.3745C60.7021 63.6169 60.5742 64.6217 60.3184 65.3891L61.0857 65.9372C61.5973 65.4621 62.3281 65.0785 63.2781 64.7861C64.2282 64.4938 65.2513 64.3477 66.3475 64.3477C67.8091 64.3477 69.2159 64.6217 70.5679 65.1698C71.2256 65.4621 71.9381 65.6448 72.7055 65.7179C73.5093 65.791 74.4959 65.8275 75.6652 65.8275C79.5019 65.8275 82.5895 64.5852 84.9281 62.1005C87.2667 59.5792 88.4359 55.4136 88.4359 49.6038C88.4359 45.1093 87.559 41.6928 85.805 39.3543ZM78.1865 50.8644C78.1865 60.109 76.5056 64.7313 73.1439 64.7313C72.267 64.7313 71.4083 64.5121 70.5679 64.0736V42.5602C70.5679 41.4274 70.9515 40.6749 71.7189 39.9441C72.5228 39.1768 73.4545 38.6966 74.5142 38.6966C75.6469 38.6966 76.5422 39.6101 77.1999 41.4371C77.8576 43.2275 78.1865 46.37 78.1865 50.8644Z" fill="url(#paint0_linear)" fill-opacity="0.5" style="mix-blend-mode:screen"/>
<path fill-rule="evenodd" clip-rule="evenodd" d="M40.9541 8.33618H10.4174C4.90418 8.33618 0.423111 12.8219 0.423111 18.3408C0.423111 23.8598 4.90418 28.3455 10.4174 28.3455H40.9541C41.81 28.3455 42.6408 28.2447 43.4212 28.0431L47.7512 32.3776V25.6742C49.7148 23.8346 50.9484 21.2389 50.9484 18.3408C50.9484 12.7967 46.4673 8.33618 40.9541 8.33618ZM33.4775 18.6432C33.4775 20.035 34.6046 21.1632 35.995 21.1632C37.3853 21.1632 38.5124 20.035 38.5124 18.6432C38.5124 17.2514 37.3853 16.1231 35.995 16.1231C34.6046 16.1231 33.4775 17.2514 33.4775 18.6432ZM25.6986 21.1632C24.3083 21.1632 23.1812 20.035 23.1812 18.6432C23.1812 17.2514 24.3083 16.1231 25.6986 16.1231C27.089 16.1231 28.2161 17.2514 28.2161 18.6432C28.2161 20.035 27.089 21.1632 25.6986 21.1632ZM12.8596 18.6432C12.8596 20.035 13.9867 21.1632 15.3771 21.1632C16.7674 21.1632 17.8945 20.035 17.8945 18.6432C17.8945 17.2514 16.7674 16.1231 15.3771 16.1231C13.9867 16.1231 12.8596 17.2514 12.8596 18.6432Z" fill="#99E3C4"/>
<path fill-rule="evenodd" clip-rule="evenodd" d="M40.9541 8.33618H10.4174C4.90418 8.33618 0.423111 12.8219 0.423111 18.3408C0.423111 23.8598 4.90418 28.3455 10.4174 28.3455H40.9541C41.81 28.3455 42.6408 28.2447 43.4212 28.0431L47.7512 32.3776V25.6742C49.7148 23.8346 50.9484 21.2389 50.9484 18.3408C50.9484 12.7967 46.4673 8.33618 40.9541 8.33618ZM33.4775 18.6432C33.4775 20.035 34.6046 21.1632 35.995 21.1632C37.3853 21.1632 38.5124 20.035 38.5124 18.6432C38.5124 17.2514 37.3853 16.1231 35.995 16.1231C34.6046 16.1231 33.4775 17.2514 33.4775 18.6432ZM25.6986 21.1632C24.3083 21.1632 23.1812 20.035 23.1812 18.6432C23.1812 17.2514 24.3083 16.1231 25.6986 16.1231C27.089 16.1231 28.2161 17.2514 28.2161 18.6432C28.2161 20.035 27.089 21.1632 25.6986 21.1632ZM12.8596 18.6432C12.8596 20.035 13.9867 21.1632 15.3771 21.1632C16.7674 21.1632 17.8945 20.035 17.8945 18.6432C17.8945 17.2514 16.7674 16.1231 15.3771 16.1231C13.9867 16.1231 12.8596 17.2514 12.8596 18.6432Z" fill="url(#paint1_linear)" style="mix-blend-mode:multiply"/>
<defs>
<linearGradient id="paint0_linear" x1="54.7347" y1="9.6" x2="54.7347" y2="65.9372" gradientUnits="userSpaceOnUse">
<stop stop-color="#99E3C4"/>
<stop offset="0.71365" stop-color="#99E3C4" stop-opacity="0"/>
</linearGradient>
<linearGradient id="paint1_linear" x1="25.6857" y1="8.33618" x2="25.6857" y2="32.3776" gradientUnits="userSpaceOnUse">
<stop offset="0.0001" stop-color="#99E3C4" stop-opacity="0"/>
<stop offset="0.302083" stop-color="#99E3C4" stop-opacity="0.01"/>
<stop offset="1" stop-color="#99E3C4"/>
</linearGradient>
</defs>
</svg>
